<svg width="64" height="64" viewBox="0 0 64 64" fill="none" xmlns="http://www.w3.org/2000/svg" role="img" aria-label="DevMatrix">
  <defs>
    <linearGradient id="dmAccent" x1="14" y1="12" x2="50" y2="52" gradientUnits="userSpaceOnUse">
      <stop stop-color="#E69A70"/>
      <stop offset="1" stop-color="#D97757"/>
    </linearGradient>
  </defs>
  <rect width="64" height="64" rx="16" fill="#1E1D1B"/>
  <rect x="8" y="8" width="48" height="48" rx="12" fill="#272522"/>

  <rect x="15" y="15" width="9" height="9" rx="3" fill="#F7F6F0" fill-opacity="0.82"/>
  <rect x="27.5" y="15" width="9" height="9" rx="3" fill="#F7F6F0" fill-opacity="0.32"/>
  <rect x="40" y="15" width="9" height="9" rx="3" fill="#F7F6F0" fill-opacity="0.22"/>

  <rect x="15" y="27.5" width="9" height="9" rx="3" fill="#F7F6F0" fill-opacity="0.30"/>
  <rect x="27.5" y="27.5" width="9" height="9" rx="3" fill="url(#dmAccent)"/>
  <rect x="40" y="27.5" width="9" height="9" rx="3" fill="#F7F6F0" fill-opacity="0.30"/>

  <rect x="15" y="40" width="9" height="9" rx="3" fill="#F7F6F0" fill-opacity="0.20"/>
  <rect x="27.5" y="40" width="9" height="9" rx="3" fill="#F7F6F0" fill-opacity="0.34"/>
  <rect x="40" y="40" width="9" height="9" rx="3" fill="#F7F6F0" fill-opacity="0.84"/>

  <path d="M19.5 19.5L32 32L44.5 44.5" stroke="#D97757" stroke-width="4" stroke-linecap="round" stroke-linejoin="round"/>
  <circle cx="19.5" cy="19.5" r="2.4" fill="#E69A70"/>
  <circle cx="32" cy="32" r="2.4" fill="#F7F6F0"/>
  <circle cx="44.5" cy="44.5" r="2.4" fill="#E69A70"/>
</svg>
